<mxfile host="app.diagrams.net" modified="2024-01-04T08:48:45.599Z" agent="Mozilla/5.0 (Windows NT 10.0; Win64; x64) AppleWebKit/537.36 (KHTML, like Gecko) Chrome/120.0.0.0 Safari/537.36" etag="4R5jzJUCd4VHN0VucSHf" version="22.1.16" type="github" pages="2">
  <diagram name="페이지-1" id="3u__s5e8Mbtb5okNppO3">
    <mxGraphModel dx="2261" dy="780" grid="1" gridSize="10" guides="1" tooltips="1" connect="1" arrows="1" fold="1" page="1" pageScale="1" pageWidth="827" pageHeight="1169" math="0" shadow="0">
      <root>
        <mxCell id="0" />
        <mxCell id="1" parent="0" />
        <mxCell id="1140-msko8bq90RM-Xo4-1" value="온라인전자상거래ERD" style="text;strokeColor=none;fillColor=none;spacingLeft=4;spacingRight=4;overflow=hidden;rotatable=0;points=[[0,0.5],[1,0.5]];portConstraint=eastwest;fontSize=17;whiteSpace=wrap;html=1;labelBackgroundColor=#3333FF;fontColor=#FFFFFF;" parent="1" vertex="1">
          <mxGeometry x="-110" width="190" height="30" as="geometry" />
        </mxCell>
        <mxCell id="1140-msko8bq90RM-Xo4-2" value="주소" style="ellipse;whiteSpace=wrap;html=1;align=center;" parent="1" vertex="1">
          <mxGeometry x="-45" y="200" width="100" height="40" as="geometry" />
        </mxCell>
        <mxCell id="1140-msko8bq90RM-Xo4-3" value="지역" style="whiteSpace=wrap;html=1;align=center;" parent="1" vertex="1">
          <mxGeometry x="110" y="410" width="100" height="40" as="geometry" />
        </mxCell>
        <mxCell id="1140-msko8bq90RM-Xo4-4" value="제품" style="whiteSpace=wrap;html=1;align=center;" parent="1" vertex="1">
          <mxGeometry x="480" y="180" width="100" height="40" as="geometry" />
        </mxCell>
        <mxCell id="1140-msko8bq90RM-Xo4-5" value="고객" style="whiteSpace=wrap;html=1;align=center;" parent="1" vertex="1">
          <mxGeometry x="100" y="180" width="100" height="40" as="geometry" />
        </mxCell>
        <mxCell id="1140-msko8bq90RM-Xo4-6" value="관리" style="shape=rhombus;perimeter=rhombusPerimeter;whiteSpace=wrap;html=1;align=center;" parent="1" vertex="1">
          <mxGeometry x="120" y="300" width="120" height="60" as="geometry" />
        </mxCell>
        <mxCell id="1140-msko8bq90RM-Xo4-7" value="구매" style="shape=rhombus;perimeter=rhombusPerimeter;whiteSpace=wrap;html=1;align=center;" parent="1" vertex="1">
          <mxGeometry x="320" y="230" width="120" height="60" as="geometry" />
        </mxCell>
        <mxCell id="1140-msko8bq90RM-Xo4-8" value="상세주소" style="ellipse;whiteSpace=wrap;html=1;align=center;" parent="1" vertex="1">
          <mxGeometry x="-130" y="250" width="100" height="40" as="geometry" />
        </mxCell>
        <mxCell id="1140-msko8bq90RM-Xo4-9" value="고객명" style="ellipse;whiteSpace=wrap;html=1;align=center;" parent="1" vertex="1">
          <mxGeometry x="-10" y="90" width="100" height="40" as="geometry" />
        </mxCell>
        <mxCell id="1140-msko8bq90RM-Xo4-10" value="기본주소" style="ellipse;whiteSpace=wrap;html=1;align=center;" parent="1" vertex="1">
          <mxGeometry x="-130" y="150" width="100" height="40" as="geometry" />
        </mxCell>
        <mxCell id="1140-msko8bq90RM-Xo4-11" value="지역명" style="ellipse;whiteSpace=wrap;html=1;align=center;" parent="1" vertex="1">
          <mxGeometry x="-45" y="480" width="100" height="40" as="geometry" />
        </mxCell>
        <mxCell id="1140-msko8bq90RM-Xo4-12" value="가격" style="ellipse;whiteSpace=wrap;html=1;align=center;" parent="1" vertex="1">
          <mxGeometry x="640" y="220" width="100" height="40" as="geometry" />
        </mxCell>
        <mxCell id="1140-msko8bq90RM-Xo4-13" value="제품구분" style="ellipse;whiteSpace=wrap;html=1;align=center;" parent="1" vertex="1">
          <mxGeometry x="570" y="280" width="100" height="40" as="geometry" />
        </mxCell>
        <mxCell id="1140-msko8bq90RM-Xo4-14" value="제품명" style="ellipse;whiteSpace=wrap;html=1;align=center;" parent="1" vertex="1">
          <mxGeometry x="600" y="60" width="100" height="40" as="geometry" />
        </mxCell>
        <mxCell id="1140-msko8bq90RM-Xo4-15" value="구매일자" style="ellipse;whiteSpace=wrap;html=1;align=center;" parent="1" vertex="1">
          <mxGeometry x="390" y="330" width="100" height="40" as="geometry" />
        </mxCell>
        <mxCell id="1140-msko8bq90RM-Xo4-16" value="수량" style="ellipse;whiteSpace=wrap;html=1;align=center;" parent="1" vertex="1">
          <mxGeometry x="270" y="330" width="100" height="40" as="geometry" />
        </mxCell>
        <mxCell id="1140-msko8bq90RM-Xo4-17" value="가입일" style="ellipse;whiteSpace=wrap;html=1;align=center;" parent="1" vertex="1">
          <mxGeometry y="280" width="100" height="40" as="geometry" />
        </mxCell>
        <mxCell id="1140-msko8bq90RM-Xo4-18" value="지역코드" style="ellipse;whiteSpace=wrap;html=1;align=center;fontStyle=4;" parent="1" vertex="1">
          <mxGeometry x="-50" y="390" width="100" height="40" as="geometry" />
        </mxCell>
        <mxCell id="1140-msko8bq90RM-Xo4-19" value="고객코드" style="ellipse;whiteSpace=wrap;html=1;align=center;fontStyle=4;" parent="1" vertex="1">
          <mxGeometry x="240" y="140" width="100" height="40" as="geometry" />
        </mxCell>
        <mxCell id="1140-msko8bq90RM-Xo4-20" value="제품코드" style="ellipse;whiteSpace=wrap;html=1;align=center;fontStyle=4;" parent="1" vertex="1">
          <mxGeometry x="490" y="50" width="100" height="40" as="geometry" />
        </mxCell>
        <mxCell id="1140-msko8bq90RM-Xo4-21" value="이메일" style="ellipse;whiteSpace=wrap;html=1;align=center;fontStyle=4;" parent="1" vertex="1">
          <mxGeometry x="170" y="80" width="100" height="40" as="geometry" />
        </mxCell>
        <mxCell id="1140-msko8bq90RM-Xo4-22" value="전화번호" style="ellipse;whiteSpace=wrap;html=1;align=center;fontStyle=4;" parent="1" vertex="1">
          <mxGeometry x="90" y="30" width="100" height="40" as="geometry" />
        </mxCell>
        <mxCell id="1140-msko8bq90RM-Xo4-23" value="제품색상" style="ellipse;shape=doubleEllipse;margin=3;whiteSpace=wrap;html=1;align=center;" parent="1" vertex="1">
          <mxGeometry x="650" y="120" width="100" height="40" as="geometry" />
        </mxCell>
        <mxCell id="1140-msko8bq90RM-Xo4-24" value="구매" style="shape=table;startSize=30;container=1;collapsible=1;childLayout=tableLayout;fixedRows=1;rowLines=0;fontStyle=1;align=center;resizeLast=1;html=1;" parent="1" vertex="1">
          <mxGeometry x="300" y="660" width="180" height="180" as="geometry" />
        </mxCell>
        <mxCell id="1140-msko8bq90RM-Xo4-25" value="" style="shape=tableRow;horizontal=0;startSize=0;swimlaneHead=0;swimlaneBody=0;fillColor=none;collapsible=0;dropTarget=0;points=[[0,0.5],[1,0.5]];portConstraint=eastwest;top=0;left=0;right=0;bottom=1;" parent="1140-msko8bq90RM-Xo4-24" vertex="1">
          <mxGeometry y="30" width="180" height="30" as="geometry" />
        </mxCell>
        <mxCell id="1140-msko8bq90RM-Xo4-26" value="PK" style="shape=partialRectangle;connectable=0;fillColor=none;top=0;left=0;bottom=0;right=0;fontStyle=1;overflow=hidden;whiteSpace=wrap;html=1;" parent="1140-msko8bq90RM-Xo4-25" vertex="1">
          <mxGeometry width="30" height="30" as="geometry">
            <mxRectangle width="30" height="30" as="alternateBounds" />
          </mxGeometry>
        </mxCell>
        <mxCell id="1140-msko8bq90RM-Xo4-27" value="구매번호" style="shape=partialRectangle;connectable=0;fillColor=none;top=0;left=0;bottom=0;right=0;align=left;spacingLeft=6;fontStyle=5;overflow=hidden;whiteSpace=wrap;html=1;" parent="1140-msko8bq90RM-Xo4-25" vertex="1">
          <mxGeometry x="30" width="150" height="30" as="geometry">
            <mxRectangle width="150" height="30" as="alternateBounds" />
          </mxGeometry>
        </mxCell>
        <mxCell id="1140-msko8bq90RM-Xo4-28" value="" style="shape=tableRow;horizontal=0;startSize=0;swimlaneHead=0;swimlaneBody=0;fillColor=none;collapsible=0;dropTarget=0;points=[[0,0.5],[1,0.5]];portConstraint=eastwest;top=0;left=0;right=0;bottom=0;" parent="1140-msko8bq90RM-Xo4-24" vertex="1">
          <mxGeometry y="60" width="180" height="30" as="geometry" />
        </mxCell>
        <mxCell id="1140-msko8bq90RM-Xo4-29" value="" style="shape=partialRectangle;connectable=0;fillColor=none;top=0;left=0;bottom=0;right=0;editable=1;overflow=hidden;whiteSpace=wrap;html=1;" parent="1140-msko8bq90RM-Xo4-28" vertex="1">
          <mxGeometry width="30" height="30" as="geometry">
            <mxRectangle width="30" height="30" as="alternateBounds" />
          </mxGeometry>
        </mxCell>
        <mxCell id="1140-msko8bq90RM-Xo4-30" value="고객코드(FK)" style="shape=partialRectangle;connectable=0;fillColor=none;top=0;left=0;bottom=0;right=0;align=left;spacingLeft=6;overflow=hidden;whiteSpace=wrap;html=1;" parent="1140-msko8bq90RM-Xo4-28" vertex="1">
          <mxGeometry x="30" width="150" height="30" as="geometry">
            <mxRectangle width="150" height="30" as="alternateBounds" />
          </mxGeometry>
        </mxCell>
        <mxCell id="1140-msko8bq90RM-Xo4-31" value="" style="shape=tableRow;horizontal=0;startSize=0;swimlaneHead=0;swimlaneBody=0;fillColor=none;collapsible=0;dropTarget=0;points=[[0,0.5],[1,0.5]];portConstraint=eastwest;top=0;left=0;right=0;bottom=0;" parent="1140-msko8bq90RM-Xo4-24" vertex="1">
          <mxGeometry y="90" width="180" height="30" as="geometry" />
        </mxCell>
        <mxCell id="1140-msko8bq90RM-Xo4-32" value="" style="shape=partialRectangle;connectable=0;fillColor=none;top=0;left=0;bottom=0;right=0;editable=1;overflow=hidden;whiteSpace=wrap;html=1;" parent="1140-msko8bq90RM-Xo4-31" vertex="1">
          <mxGeometry width="30" height="30" as="geometry">
            <mxRectangle width="30" height="30" as="alternateBounds" />
          </mxGeometry>
        </mxCell>
        <mxCell id="1140-msko8bq90RM-Xo4-33" value="제품코드(FK)" style="shape=partialRectangle;connectable=0;fillColor=none;top=0;left=0;bottom=0;right=0;align=left;spacingLeft=6;overflow=hidden;whiteSpace=wrap;html=1;" parent="1140-msko8bq90RM-Xo4-31" vertex="1">
          <mxGeometry x="30" width="150" height="30" as="geometry">
            <mxRectangle width="150" height="30" as="alternateBounds" />
          </mxGeometry>
        </mxCell>
        <mxCell id="1140-msko8bq90RM-Xo4-34" value="" style="shape=tableRow;horizontal=0;startSize=0;swimlaneHead=0;swimlaneBody=0;fillColor=none;collapsible=0;dropTarget=0;points=[[0,0.5],[1,0.5]];portConstraint=eastwest;top=0;left=0;right=0;bottom=0;" parent="1140-msko8bq90RM-Xo4-24" vertex="1">
          <mxGeometry y="120" width="180" height="30" as="geometry" />
        </mxCell>
        <mxCell id="1140-msko8bq90RM-Xo4-35" value="" style="shape=partialRectangle;connectable=0;fillColor=none;top=0;left=0;bottom=0;right=0;editable=1;overflow=hidden;whiteSpace=wrap;html=1;" parent="1140-msko8bq90RM-Xo4-34" vertex="1">
          <mxGeometry width="30" height="30" as="geometry">
            <mxRectangle width="30" height="30" as="alternateBounds" />
          </mxGeometry>
        </mxCell>
        <mxCell id="1140-msko8bq90RM-Xo4-36" value="구매일자" style="shape=partialRectangle;connectable=0;fillColor=none;top=0;left=0;bottom=0;right=0;align=left;spacingLeft=6;overflow=hidden;whiteSpace=wrap;html=1;" parent="1140-msko8bq90RM-Xo4-34" vertex="1">
          <mxGeometry x="30" width="150" height="30" as="geometry">
            <mxRectangle width="150" height="30" as="alternateBounds" />
          </mxGeometry>
        </mxCell>
        <mxCell id="1140-msko8bq90RM-Xo4-129" value="" style="shape=tableRow;horizontal=0;startSize=0;swimlaneHead=0;swimlaneBody=0;fillColor=none;collapsible=0;dropTarget=0;points=[[0,0.5],[1,0.5]];portConstraint=eastwest;top=0;left=0;right=0;bottom=0;" parent="1140-msko8bq90RM-Xo4-24" vertex="1">
          <mxGeometry y="150" width="180" height="30" as="geometry" />
        </mxCell>
        <mxCell id="1140-msko8bq90RM-Xo4-130" value="" style="shape=partialRectangle;connectable=0;fillColor=none;top=0;left=0;bottom=0;right=0;editable=1;overflow=hidden;whiteSpace=wrap;html=1;" parent="1140-msko8bq90RM-Xo4-129" vertex="1">
          <mxGeometry width="30" height="30" as="geometry">
            <mxRectangle width="30" height="30" as="alternateBounds" />
          </mxGeometry>
        </mxCell>
        <mxCell id="1140-msko8bq90RM-Xo4-131" value="수량" style="shape=partialRectangle;connectable=0;fillColor=none;top=0;left=0;bottom=0;right=0;align=left;spacingLeft=6;overflow=hidden;whiteSpace=wrap;html=1;" parent="1140-msko8bq90RM-Xo4-129" vertex="1">
          <mxGeometry x="30" width="150" height="30" as="geometry">
            <mxRectangle width="150" height="30" as="alternateBounds" />
          </mxGeometry>
        </mxCell>
        <mxCell id="1140-msko8bq90RM-Xo4-37" value="제품" style="shape=table;startSize=30;container=1;collapsible=1;childLayout=tableLayout;fixedRows=1;rowLines=0;fontStyle=1;align=center;resizeLast=1;html=1;" parent="1" vertex="1">
          <mxGeometry x="550" y="660" width="180" height="140" as="geometry" />
        </mxCell>
        <mxCell id="1140-msko8bq90RM-Xo4-38" value="" style="shape=tableRow;horizontal=0;startSize=0;swimlaneHead=0;swimlaneBody=0;fillColor=none;collapsible=0;dropTarget=0;points=[[0,0.5],[1,0.5]];portConstraint=eastwest;top=0;left=0;right=0;bottom=1;" parent="1140-msko8bq90RM-Xo4-37" vertex="1">
          <mxGeometry y="30" width="180" height="20" as="geometry" />
        </mxCell>
        <mxCell id="1140-msko8bq90RM-Xo4-39" value="PK" style="shape=partialRectangle;connectable=0;fillColor=none;top=0;left=0;bottom=0;right=0;fontStyle=1;overflow=hidden;whiteSpace=wrap;html=1;" parent="1140-msko8bq90RM-Xo4-38" vertex="1">
          <mxGeometry width="30" height="20" as="geometry">
            <mxRectangle width="30" height="20" as="alternateBounds" />
          </mxGeometry>
        </mxCell>
        <mxCell id="1140-msko8bq90RM-Xo4-40" value="제품번호" style="shape=partialRectangle;connectable=0;fillColor=none;top=0;left=0;bottom=0;right=0;align=left;spacingLeft=6;fontStyle=5;overflow=hidden;whiteSpace=wrap;html=1;" parent="1140-msko8bq90RM-Xo4-38" vertex="1">
          <mxGeometry x="30" width="150" height="20" as="geometry">
            <mxRectangle width="150" height="20" as="alternateBounds" />
          </mxGeometry>
        </mxCell>
        <mxCell id="1140-msko8bq90RM-Xo4-41" value="" style="shape=tableRow;horizontal=0;startSize=0;swimlaneHead=0;swimlaneBody=0;fillColor=none;collapsible=0;dropTarget=0;points=[[0,0.5],[1,0.5]];portConstraint=eastwest;top=0;left=0;right=0;bottom=0;" parent="1140-msko8bq90RM-Xo4-37" vertex="1">
          <mxGeometry y="50" width="180" height="30" as="geometry" />
        </mxCell>
        <mxCell id="1140-msko8bq90RM-Xo4-42" value="" style="shape=partialRectangle;connectable=0;fillColor=none;top=0;left=0;bottom=0;right=0;editable=1;overflow=hidden;whiteSpace=wrap;html=1;" parent="1140-msko8bq90RM-Xo4-41" vertex="1">
          <mxGeometry width="30" height="30" as="geometry">
            <mxRectangle width="30" height="30" as="alternateBounds" />
          </mxGeometry>
        </mxCell>
        <mxCell id="1140-msko8bq90RM-Xo4-43" value="제품코드(unique)" style="shape=partialRectangle;connectable=0;fillColor=none;top=0;left=0;bottom=0;right=0;align=left;spacingLeft=6;overflow=hidden;whiteSpace=wrap;html=1;" parent="1140-msko8bq90RM-Xo4-41" vertex="1">
          <mxGeometry x="30" width="150" height="30" as="geometry">
            <mxRectangle width="150" height="30" as="alternateBounds" />
          </mxGeometry>
        </mxCell>
        <mxCell id="1140-msko8bq90RM-Xo4-44" value="" style="shape=tableRow;horizontal=0;startSize=0;swimlaneHead=0;swimlaneBody=0;fillColor=none;collapsible=0;dropTarget=0;points=[[0,0.5],[1,0.5]];portConstraint=eastwest;top=0;left=0;right=0;bottom=0;" parent="1140-msko8bq90RM-Xo4-37" vertex="1">
          <mxGeometry y="80" width="180" height="30" as="geometry" />
        </mxCell>
        <mxCell id="1140-msko8bq90RM-Xo4-45" value="" style="shape=partialRectangle;connectable=0;fillColor=none;top=0;left=0;bottom=0;right=0;editable=1;overflow=hidden;whiteSpace=wrap;html=1;" parent="1140-msko8bq90RM-Xo4-44" vertex="1">
          <mxGeometry width="30" height="30" as="geometry">
            <mxRectangle width="30" height="30" as="alternateBounds" />
          </mxGeometry>
        </mxCell>
        <mxCell id="1140-msko8bq90RM-Xo4-46" value="제품이름" style="shape=partialRectangle;connectable=0;fillColor=none;top=0;left=0;bottom=0;right=0;align=left;spacingLeft=6;overflow=hidden;whiteSpace=wrap;html=1;" parent="1140-msko8bq90RM-Xo4-44" vertex="1">
          <mxGeometry x="30" width="150" height="30" as="geometry">
            <mxRectangle width="150" height="30" as="alternateBounds" />
          </mxGeometry>
        </mxCell>
        <mxCell id="1140-msko8bq90RM-Xo4-47" value="" style="shape=tableRow;horizontal=0;startSize=0;swimlaneHead=0;swimlaneBody=0;fillColor=none;collapsible=0;dropTarget=0;points=[[0,0.5],[1,0.5]];portConstraint=eastwest;top=0;left=0;right=0;bottom=0;" parent="1140-msko8bq90RM-Xo4-37" vertex="1">
          <mxGeometry y="110" width="180" height="30" as="geometry" />
        </mxCell>
        <mxCell id="1140-msko8bq90RM-Xo4-48" value="" style="shape=partialRectangle;connectable=0;fillColor=none;top=0;left=0;bottom=0;right=0;editable=1;overflow=hidden;whiteSpace=wrap;html=1;" parent="1140-msko8bq90RM-Xo4-47" vertex="1">
          <mxGeometry width="30" height="30" as="geometry">
            <mxRectangle width="30" height="30" as="alternateBounds" />
          </mxGeometry>
        </mxCell>
        <mxCell id="1140-msko8bq90RM-Xo4-49" value="가격" style="shape=partialRectangle;connectable=0;fillColor=none;top=0;left=0;bottom=0;right=0;align=left;spacingLeft=6;overflow=hidden;whiteSpace=wrap;html=1;" parent="1140-msko8bq90RM-Xo4-47" vertex="1">
          <mxGeometry x="30" width="150" height="30" as="geometry">
            <mxRectangle width="150" height="30" as="alternateBounds" />
          </mxGeometry>
        </mxCell>
        <mxCell id="1140-msko8bq90RM-Xo4-50" value="고객" style="shape=table;startSize=30;container=1;collapsible=1;childLayout=tableLayout;fixedRows=1;rowLines=0;fontStyle=1;align=center;resizeLast=1;html=1;" parent="1" vertex="1">
          <mxGeometry x="30" y="660" width="180" height="270" as="geometry" />
        </mxCell>
        <mxCell id="1140-msko8bq90RM-Xo4-51" value="" style="shape=tableRow;horizontal=0;startSize=0;swimlaneHead=0;swimlaneBody=0;fillColor=none;collapsible=0;dropTarget=0;points=[[0,0.5],[1,0.5]];portConstraint=eastwest;top=0;left=0;right=0;bottom=1;" parent="1140-msko8bq90RM-Xo4-50" vertex="1">
          <mxGeometry y="30" width="180" height="30" as="geometry" />
        </mxCell>
        <mxCell id="1140-msko8bq90RM-Xo4-52" value="PK" style="shape=partialRectangle;connectable=0;fillColor=none;top=0;left=0;bottom=0;right=0;fontStyle=1;overflow=hidden;whiteSpace=wrap;html=1;" parent="1140-msko8bq90RM-Xo4-51" vertex="1">
          <mxGeometry width="30" height="30" as="geometry">
            <mxRectangle width="30" height="30" as="alternateBounds" />
          </mxGeometry>
        </mxCell>
        <mxCell id="1140-msko8bq90RM-Xo4-53" value="고객코드" style="shape=partialRectangle;connectable=0;fillColor=none;top=0;left=0;bottom=0;right=0;align=left;spacingLeft=6;fontStyle=5;overflow=hidden;whiteSpace=wrap;html=1;" parent="1140-msko8bq90RM-Xo4-51" vertex="1">
          <mxGeometry x="30" width="150" height="30" as="geometry">
            <mxRectangle width="150" height="30" as="alternateBounds" />
          </mxGeometry>
        </mxCell>
        <mxCell id="1140-msko8bq90RM-Xo4-54" value="" style="shape=tableRow;horizontal=0;startSize=0;swimlaneHead=0;swimlaneBody=0;fillColor=none;collapsible=0;dropTarget=0;points=[[0,0.5],[1,0.5]];portConstraint=eastwest;top=0;left=0;right=0;bottom=0;" parent="1140-msko8bq90RM-Xo4-50" vertex="1">
          <mxGeometry y="60" width="180" height="30" as="geometry" />
        </mxCell>
        <mxCell id="1140-msko8bq90RM-Xo4-55" value="" style="shape=partialRectangle;connectable=0;fillColor=none;top=0;left=0;bottom=0;right=0;editable=1;overflow=hidden;whiteSpace=wrap;html=1;" parent="1140-msko8bq90RM-Xo4-54" vertex="1">
          <mxGeometry width="30" height="30" as="geometry">
            <mxRectangle width="30" height="30" as="alternateBounds" />
          </mxGeometry>
        </mxCell>
        <mxCell id="1140-msko8bq90RM-Xo4-56" value="이메일" style="shape=partialRectangle;connectable=0;fillColor=none;top=0;left=0;bottom=0;right=0;align=left;spacingLeft=6;overflow=hidden;whiteSpace=wrap;html=1;" parent="1140-msko8bq90RM-Xo4-54" vertex="1">
          <mxGeometry x="30" width="150" height="30" as="geometry">
            <mxRectangle width="150" height="30" as="alternateBounds" />
          </mxGeometry>
        </mxCell>
        <mxCell id="1140-msko8bq90RM-Xo4-57" value="" style="shape=tableRow;horizontal=0;startSize=0;swimlaneHead=0;swimlaneBody=0;fillColor=none;collapsible=0;dropTarget=0;points=[[0,0.5],[1,0.5]];portConstraint=eastwest;top=0;left=0;right=0;bottom=0;" parent="1140-msko8bq90RM-Xo4-50" vertex="1">
          <mxGeometry y="90" width="180" height="30" as="geometry" />
        </mxCell>
        <mxCell id="1140-msko8bq90RM-Xo4-58" value="" style="shape=partialRectangle;connectable=0;fillColor=none;top=0;left=0;bottom=0;right=0;editable=1;overflow=hidden;whiteSpace=wrap;html=1;" parent="1140-msko8bq90RM-Xo4-57" vertex="1">
          <mxGeometry width="30" height="30" as="geometry">
            <mxRectangle width="30" height="30" as="alternateBounds" />
          </mxGeometry>
        </mxCell>
        <mxCell id="1140-msko8bq90RM-Xo4-59" value="전화번호" style="shape=partialRectangle;connectable=0;fillColor=none;top=0;left=0;bottom=0;right=0;align=left;spacingLeft=6;overflow=hidden;whiteSpace=wrap;html=1;" parent="1140-msko8bq90RM-Xo4-57" vertex="1">
          <mxGeometry x="30" width="150" height="30" as="geometry">
            <mxRectangle width="150" height="30" as="alternateBounds" />
          </mxGeometry>
        </mxCell>
        <mxCell id="1140-msko8bq90RM-Xo4-60" value="" style="shape=tableRow;horizontal=0;startSize=0;swimlaneHead=0;swimlaneBody=0;fillColor=none;collapsible=0;dropTarget=0;points=[[0,0.5],[1,0.5]];portConstraint=eastwest;top=0;left=0;right=0;bottom=0;" parent="1140-msko8bq90RM-Xo4-50" vertex="1">
          <mxGeometry y="120" width="180" height="30" as="geometry" />
        </mxCell>
        <mxCell id="1140-msko8bq90RM-Xo4-61" value="" style="shape=partialRectangle;connectable=0;fillColor=none;top=0;left=0;bottom=0;right=0;editable=1;overflow=hidden;whiteSpace=wrap;html=1;" parent="1140-msko8bq90RM-Xo4-60" vertex="1">
          <mxGeometry width="30" height="30" as="geometry">
            <mxRectangle width="30" height="30" as="alternateBounds" />
          </mxGeometry>
        </mxCell>
        <mxCell id="1140-msko8bq90RM-Xo4-62" value="고객명" style="shape=partialRectangle;connectable=0;fillColor=none;top=0;left=0;bottom=0;right=0;align=left;spacingLeft=6;overflow=hidden;whiteSpace=wrap;html=1;" parent="1140-msko8bq90RM-Xo4-60" vertex="1">
          <mxGeometry x="30" width="150" height="30" as="geometry">
            <mxRectangle width="150" height="30" as="alternateBounds" />
          </mxGeometry>
        </mxCell>
        <mxCell id="1140-msko8bq90RM-Xo4-117" value="" style="shape=tableRow;horizontal=0;startSize=0;swimlaneHead=0;swimlaneBody=0;fillColor=none;collapsible=0;dropTarget=0;points=[[0,0.5],[1,0.5]];portConstraint=eastwest;top=0;left=0;right=0;bottom=0;" parent="1140-msko8bq90RM-Xo4-50" vertex="1">
          <mxGeometry y="150" width="180" height="30" as="geometry" />
        </mxCell>
        <mxCell id="1140-msko8bq90RM-Xo4-118" value="" style="shape=partialRectangle;connectable=0;fillColor=none;top=0;left=0;bottom=0;right=0;editable=1;overflow=hidden;whiteSpace=wrap;html=1;" parent="1140-msko8bq90RM-Xo4-117" vertex="1">
          <mxGeometry width="30" height="30" as="geometry">
            <mxRectangle width="30" height="30" as="alternateBounds" />
          </mxGeometry>
        </mxCell>
        <mxCell id="1140-msko8bq90RM-Xo4-119" value="기본주소" style="shape=partialRectangle;connectable=0;fillColor=none;top=0;left=0;bottom=0;right=0;align=left;spacingLeft=6;overflow=hidden;whiteSpace=wrap;html=1;" parent="1140-msko8bq90RM-Xo4-117" vertex="1">
          <mxGeometry x="30" width="150" height="30" as="geometry">
            <mxRectangle width="150" height="30" as="alternateBounds" />
          </mxGeometry>
        </mxCell>
        <mxCell id="1140-msko8bq90RM-Xo4-120" value="" style="shape=tableRow;horizontal=0;startSize=0;swimlaneHead=0;swimlaneBody=0;fillColor=none;collapsible=0;dropTarget=0;points=[[0,0.5],[1,0.5]];portConstraint=eastwest;top=0;left=0;right=0;bottom=0;" parent="1140-msko8bq90RM-Xo4-50" vertex="1">
          <mxGeometry y="180" width="180" height="30" as="geometry" />
        </mxCell>
        <mxCell id="1140-msko8bq90RM-Xo4-121" value="" style="shape=partialRectangle;connectable=0;fillColor=none;top=0;left=0;bottom=0;right=0;editable=1;overflow=hidden;whiteSpace=wrap;html=1;" parent="1140-msko8bq90RM-Xo4-120" vertex="1">
          <mxGeometry width="30" height="30" as="geometry">
            <mxRectangle width="30" height="30" as="alternateBounds" />
          </mxGeometry>
        </mxCell>
        <mxCell id="1140-msko8bq90RM-Xo4-122" value="상세주소" style="shape=partialRectangle;connectable=0;fillColor=none;top=0;left=0;bottom=0;right=0;align=left;spacingLeft=6;overflow=hidden;whiteSpace=wrap;html=1;" parent="1140-msko8bq90RM-Xo4-120" vertex="1">
          <mxGeometry x="30" width="150" height="30" as="geometry">
            <mxRectangle width="150" height="30" as="alternateBounds" />
          </mxGeometry>
        </mxCell>
        <mxCell id="1140-msko8bq90RM-Xo4-123" value="" style="shape=tableRow;horizontal=0;startSize=0;swimlaneHead=0;swimlaneBody=0;fillColor=none;collapsible=0;dropTarget=0;points=[[0,0.5],[1,0.5]];portConstraint=eastwest;top=0;left=0;right=0;bottom=0;" parent="1140-msko8bq90RM-Xo4-50" vertex="1">
          <mxGeometry y="210" width="180" height="30" as="geometry" />
        </mxCell>
        <mxCell id="1140-msko8bq90RM-Xo4-124" value="" style="shape=partialRectangle;connectable=0;fillColor=none;top=0;left=0;bottom=0;right=0;editable=1;overflow=hidden;whiteSpace=wrap;html=1;" parent="1140-msko8bq90RM-Xo4-123" vertex="1">
          <mxGeometry width="30" height="30" as="geometry">
            <mxRectangle width="30" height="30" as="alternateBounds" />
          </mxGeometry>
        </mxCell>
        <mxCell id="1140-msko8bq90RM-Xo4-125" value="가입일" style="shape=partialRectangle;connectable=0;fillColor=none;top=0;left=0;bottom=0;right=0;align=left;spacingLeft=6;overflow=hidden;whiteSpace=wrap;html=1;" parent="1140-msko8bq90RM-Xo4-123" vertex="1">
          <mxGeometry x="30" width="150" height="30" as="geometry">
            <mxRectangle width="150" height="30" as="alternateBounds" />
          </mxGeometry>
        </mxCell>
        <mxCell id="1140-msko8bq90RM-Xo4-126" value="" style="shape=tableRow;horizontal=0;startSize=0;swimlaneHead=0;swimlaneBody=0;fillColor=none;collapsible=0;dropTarget=0;points=[[0,0.5],[1,0.5]];portConstraint=eastwest;top=0;left=0;right=0;bottom=0;" parent="1140-msko8bq90RM-Xo4-50" vertex="1">
          <mxGeometry y="240" width="180" height="30" as="geometry" />
        </mxCell>
        <mxCell id="1140-msko8bq90RM-Xo4-127" value="" style="shape=partialRectangle;connectable=0;fillColor=none;top=0;left=0;bottom=0;right=0;editable=1;overflow=hidden;whiteSpace=wrap;html=1;" parent="1140-msko8bq90RM-Xo4-126" vertex="1">
          <mxGeometry width="30" height="30" as="geometry">
            <mxRectangle width="30" height="30" as="alternateBounds" />
          </mxGeometry>
        </mxCell>
        <mxCell id="1140-msko8bq90RM-Xo4-128" value="지역코드(FK)" style="shape=partialRectangle;connectable=0;fillColor=none;top=0;left=0;bottom=0;right=0;align=left;spacingLeft=6;overflow=hidden;whiteSpace=wrap;html=1;" parent="1140-msko8bq90RM-Xo4-126" vertex="1">
          <mxGeometry x="30" width="150" height="30" as="geometry">
            <mxRectangle width="150" height="30" as="alternateBounds" />
          </mxGeometry>
        </mxCell>
        <mxCell id="1140-msko8bq90RM-Xo4-63" value="지역" style="shape=table;startSize=30;container=1;collapsible=1;childLayout=tableLayout;fixedRows=1;rowLines=0;fontStyle=1;align=center;resizeLast=1;html=1;" parent="1" vertex="1">
          <mxGeometry x="-240" y="660" width="180" height="90" as="geometry" />
        </mxCell>
        <mxCell id="1140-msko8bq90RM-Xo4-64" value="" style="shape=tableRow;horizontal=0;startSize=0;swimlaneHead=0;swimlaneBody=0;fillColor=none;collapsible=0;dropTarget=0;points=[[0,0.5],[1,0.5]];portConstraint=eastwest;top=0;left=0;right=0;bottom=1;" parent="1140-msko8bq90RM-Xo4-63" vertex="1">
          <mxGeometry y="30" width="180" height="30" as="geometry" />
        </mxCell>
        <mxCell id="1140-msko8bq90RM-Xo4-65" value="PK" style="shape=partialRectangle;connectable=0;fillColor=none;top=0;left=0;bottom=0;right=0;fontStyle=1;overflow=hidden;whiteSpace=wrap;html=1;" parent="1140-msko8bq90RM-Xo4-64" vertex="1">
          <mxGeometry width="30" height="30" as="geometry">
            <mxRectangle width="30" height="30" as="alternateBounds" />
          </mxGeometry>
        </mxCell>
        <mxCell id="1140-msko8bq90RM-Xo4-66" value="지역코드" style="shape=partialRectangle;connectable=0;fillColor=none;top=0;left=0;bottom=0;right=0;align=left;spacingLeft=6;fontStyle=5;overflow=hidden;whiteSpace=wrap;html=1;" parent="1140-msko8bq90RM-Xo4-64" vertex="1">
          <mxGeometry x="30" width="150" height="30" as="geometry">
            <mxRectangle width="150" height="30" as="alternateBounds" />
          </mxGeometry>
        </mxCell>
        <mxCell id="1140-msko8bq90RM-Xo4-67" value="" style="shape=tableRow;horizontal=0;startSize=0;swimlaneHead=0;swimlaneBody=0;fillColor=none;collapsible=0;dropTarget=0;points=[[0,0.5],[1,0.5]];portConstraint=eastwest;top=0;left=0;right=0;bottom=0;" parent="1140-msko8bq90RM-Xo4-63" vertex="1">
          <mxGeometry y="60" width="180" height="30" as="geometry" />
        </mxCell>
        <mxCell id="1140-msko8bq90RM-Xo4-68" value="" style="shape=partialRectangle;connectable=0;fillColor=none;top=0;left=0;bottom=0;right=0;editable=1;overflow=hidden;whiteSpace=wrap;html=1;" parent="1140-msko8bq90RM-Xo4-67" vertex="1">
          <mxGeometry width="30" height="30" as="geometry">
            <mxRectangle width="30" height="30" as="alternateBounds" />
          </mxGeometry>
        </mxCell>
        <mxCell id="1140-msko8bq90RM-Xo4-69" value="지역명" style="shape=partialRectangle;connectable=0;fillColor=none;top=0;left=0;bottom=0;right=0;align=left;spacingLeft=6;overflow=hidden;whiteSpace=wrap;html=1;" parent="1140-msko8bq90RM-Xo4-67" vertex="1">
          <mxGeometry x="30" width="150" height="30" as="geometry">
            <mxRectangle width="150" height="30" as="alternateBounds" />
          </mxGeometry>
        </mxCell>
        <mxCell id="1140-msko8bq90RM-Xo4-76" value="논리적인 모델링(RM)" style="text;strokeColor=none;fillColor=none;spacingLeft=4;spacingRight=4;overflow=hidden;rotatable=0;points=[[0,0.5],[1,0.5]];portConstraint=eastwest;fontSize=19;whiteSpace=wrap;html=1;labelBackgroundColor=#3333FF;fontColor=#FFFFFF;" parent="1" vertex="1">
          <mxGeometry x="-280" y="555" width="200" height="30" as="geometry" />
        </mxCell>
        <mxCell id="1140-msko8bq90RM-Xo4-77" value="" style="endArrow=none;html=1;rounded=0;" parent="1" source="1140-msko8bq90RM-Xo4-9" target="1140-msko8bq90RM-Xo4-5" edge="1">
          <mxGeometry relative="1" as="geometry">
            <mxPoint x="200" y="270" as="sourcePoint" />
            <mxPoint x="360" y="270" as="targetPoint" />
          </mxGeometry>
        </mxCell>
        <mxCell id="1140-msko8bq90RM-Xo4-91" value="" style="endArrow=none;html=1;rounded=0;" parent="1" source="1140-msko8bq90RM-Xo4-22" target="1140-msko8bq90RM-Xo4-5" edge="1">
          <mxGeometry relative="1" as="geometry">
            <mxPoint x="72" y="138" as="sourcePoint" />
            <mxPoint x="136" y="190" as="targetPoint" />
          </mxGeometry>
        </mxCell>
        <mxCell id="1140-msko8bq90RM-Xo4-92" value="" style="endArrow=none;html=1;rounded=0;" parent="1" source="1140-msko8bq90RM-Xo4-5" target="1140-msko8bq90RM-Xo4-21" edge="1">
          <mxGeometry relative="1" as="geometry">
            <mxPoint x="82" y="148" as="sourcePoint" />
            <mxPoint x="146" y="200" as="targetPoint" />
          </mxGeometry>
        </mxCell>
        <mxCell id="1140-msko8bq90RM-Xo4-93" value="" style="endArrow=none;html=1;rounded=0;" parent="1" source="1140-msko8bq90RM-Xo4-5" target="1140-msko8bq90RM-Xo4-19" edge="1">
          <mxGeometry relative="1" as="geometry">
            <mxPoint x="92" y="158" as="sourcePoint" />
            <mxPoint x="156" y="210" as="targetPoint" />
          </mxGeometry>
        </mxCell>
        <mxCell id="1140-msko8bq90RM-Xo4-94" value="" style="endArrow=none;html=1;rounded=0;" parent="1" source="1140-msko8bq90RM-Xo4-2" target="1140-msko8bq90RM-Xo4-5" edge="1">
          <mxGeometry relative="1" as="geometry">
            <mxPoint x="102" y="168" as="sourcePoint" />
            <mxPoint x="166" y="220" as="targetPoint" />
          </mxGeometry>
        </mxCell>
        <mxCell id="1140-msko8bq90RM-Xo4-95" value="" style="endArrow=none;html=1;rounded=0;" parent="1" source="1140-msko8bq90RM-Xo4-10" target="1140-msko8bq90RM-Xo4-2" edge="1">
          <mxGeometry relative="1" as="geometry">
            <mxPoint x="112" y="178" as="sourcePoint" />
            <mxPoint x="176" y="230" as="targetPoint" />
          </mxGeometry>
        </mxCell>
        <mxCell id="1140-msko8bq90RM-Xo4-96" value="" style="endArrow=none;html=1;rounded=0;" parent="1" source="1140-msko8bq90RM-Xo4-8" target="1140-msko8bq90RM-Xo4-2" edge="1">
          <mxGeometry relative="1" as="geometry">
            <mxPoint x="122" y="188" as="sourcePoint" />
            <mxPoint x="186" y="240" as="targetPoint" />
          </mxGeometry>
        </mxCell>
        <mxCell id="1140-msko8bq90RM-Xo4-97" value="" style="endArrow=none;html=1;rounded=0;" parent="1" source="1140-msko8bq90RM-Xo4-5" target="1140-msko8bq90RM-Xo4-17" edge="1">
          <mxGeometry relative="1" as="geometry">
            <mxPoint x="132" y="198" as="sourcePoint" />
            <mxPoint x="196" y="250" as="targetPoint" />
          </mxGeometry>
        </mxCell>
        <mxCell id="1140-msko8bq90RM-Xo4-98" value="" style="endArrow=none;html=1;rounded=0;" parent="1" source="1140-msko8bq90RM-Xo4-20" target="1140-msko8bq90RM-Xo4-4" edge="1">
          <mxGeometry relative="1" as="geometry">
            <mxPoint x="142" y="208" as="sourcePoint" />
            <mxPoint x="206" y="260" as="targetPoint" />
          </mxGeometry>
        </mxCell>
        <mxCell id="1140-msko8bq90RM-Xo4-99" value="" style="endArrow=none;html=1;rounded=0;" parent="1" source="1140-msko8bq90RM-Xo4-4" target="1140-msko8bq90RM-Xo4-14" edge="1">
          <mxGeometry relative="1" as="geometry">
            <mxPoint x="152" y="218" as="sourcePoint" />
            <mxPoint x="216" y="270" as="targetPoint" />
          </mxGeometry>
        </mxCell>
        <mxCell id="1140-msko8bq90RM-Xo4-100" value="" style="endArrow=none;html=1;rounded=0;" parent="1" source="1140-msko8bq90RM-Xo4-4" target="1140-msko8bq90RM-Xo4-23" edge="1">
          <mxGeometry relative="1" as="geometry">
            <mxPoint x="162" y="228" as="sourcePoint" />
            <mxPoint x="226" y="280" as="targetPoint" />
          </mxGeometry>
        </mxCell>
        <mxCell id="1140-msko8bq90RM-Xo4-101" value="" style="endArrow=none;html=1;rounded=0;" parent="1" source="1140-msko8bq90RM-Xo4-4" target="1140-msko8bq90RM-Xo4-12" edge="1">
          <mxGeometry relative="1" as="geometry">
            <mxPoint x="172" y="238" as="sourcePoint" />
            <mxPoint x="236" y="290" as="targetPoint" />
          </mxGeometry>
        </mxCell>
        <mxCell id="1140-msko8bq90RM-Xo4-102" value="" style="endArrow=none;html=1;rounded=0;" parent="1" source="1140-msko8bq90RM-Xo4-4" target="1140-msko8bq90RM-Xo4-13" edge="1">
          <mxGeometry relative="1" as="geometry">
            <mxPoint x="182" y="248" as="sourcePoint" />
            <mxPoint x="246" y="300" as="targetPoint" />
          </mxGeometry>
        </mxCell>
        <mxCell id="1140-msko8bq90RM-Xo4-103" value="" style="endArrow=none;html=1;rounded=0;" parent="1" source="1140-msko8bq90RM-Xo4-3" target="1140-msko8bq90RM-Xo4-18" edge="1">
          <mxGeometry relative="1" as="geometry">
            <mxPoint x="192" y="258" as="sourcePoint" />
            <mxPoint x="256" y="310" as="targetPoint" />
          </mxGeometry>
        </mxCell>
        <mxCell id="1140-msko8bq90RM-Xo4-104" value="" style="endArrow=none;html=1;rounded=0;" parent="1" source="1140-msko8bq90RM-Xo4-3" target="1140-msko8bq90RM-Xo4-11" edge="1">
          <mxGeometry relative="1" as="geometry">
            <mxPoint x="202" y="268" as="sourcePoint" />
            <mxPoint x="266" y="320" as="targetPoint" />
          </mxGeometry>
        </mxCell>
        <mxCell id="1140-msko8bq90RM-Xo4-105" value="" style="endArrow=none;html=1;rounded=0;" parent="1" source="1140-msko8bq90RM-Xo4-16" target="1140-msko8bq90RM-Xo4-7" edge="1">
          <mxGeometry relative="1" as="geometry">
            <mxPoint x="212" y="278" as="sourcePoint" />
            <mxPoint x="276" y="330" as="targetPoint" />
          </mxGeometry>
        </mxCell>
        <mxCell id="1140-msko8bq90RM-Xo4-106" value="" style="endArrow=none;html=1;rounded=0;" parent="1" source="1140-msko8bq90RM-Xo4-7" target="1140-msko8bq90RM-Xo4-15" edge="1">
          <mxGeometry relative="1" as="geometry">
            <mxPoint x="222" y="288" as="sourcePoint" />
            <mxPoint x="286" y="340" as="targetPoint" />
          </mxGeometry>
        </mxCell>
        <mxCell id="1140-msko8bq90RM-Xo4-107" value="" style="endArrow=none;html=1;rounded=0;entryX=0.5;entryY=0;entryDx=0;entryDy=0;" parent="1" source="1140-msko8bq90RM-Xo4-5" target="1140-msko8bq90RM-Xo4-6" edge="1">
          <mxGeometry relative="1" as="geometry">
            <mxPoint x="232" y="298" as="sourcePoint" />
            <mxPoint x="296" y="350" as="targetPoint" />
          </mxGeometry>
        </mxCell>
        <mxCell id="1140-msko8bq90RM-Xo4-108" value="" style="endArrow=none;html=1;rounded=0;exitX=0.5;exitY=1;exitDx=0;exitDy=0;" parent="1" source="1140-msko8bq90RM-Xo4-6" target="1140-msko8bq90RM-Xo4-3" edge="1">
          <mxGeometry relative="1" as="geometry">
            <mxPoint x="242" y="308" as="sourcePoint" />
            <mxPoint x="306" y="360" as="targetPoint" />
          </mxGeometry>
        </mxCell>
        <mxCell id="1140-msko8bq90RM-Xo4-109" value="" style="endArrow=none;html=1;rounded=0;entryX=0;entryY=0.5;entryDx=0;entryDy=0;" parent="1" source="1140-msko8bq90RM-Xo4-5" target="1140-msko8bq90RM-Xo4-7" edge="1">
          <mxGeometry relative="1" as="geometry">
            <mxPoint x="252" y="318" as="sourcePoint" />
            <mxPoint x="316" y="370" as="targetPoint" />
          </mxGeometry>
        </mxCell>
        <mxCell id="1140-msko8bq90RM-Xo4-110" value="" style="endArrow=none;html=1;rounded=0;exitX=0;exitY=0.5;exitDx=0;exitDy=0;entryX=1;entryY=0.5;entryDx=0;entryDy=0;" parent="1" source="1140-msko8bq90RM-Xo4-4" target="1140-msko8bq90RM-Xo4-7" edge="1">
          <mxGeometry relative="1" as="geometry">
            <mxPoint x="262" y="328" as="sourcePoint" />
            <mxPoint x="326" y="380" as="targetPoint" />
          </mxGeometry>
        </mxCell>
        <mxCell id="1140-msko8bq90RM-Xo4-111" value="1" style="text;strokeColor=none;fillColor=none;spacingLeft=4;spacingRight=4;overflow=hidden;rotatable=0;points=[[0,0.5],[1,0.5]];portConstraint=eastwest;fontSize=12;whiteSpace=wrap;html=1;" parent="1" vertex="1">
          <mxGeometry x="180" y="360" width="40" height="30" as="geometry" />
        </mxCell>
        <mxCell id="1140-msko8bq90RM-Xo4-112" value="M" style="text;strokeColor=none;fillColor=none;spacingLeft=4;spacingRight=4;overflow=hidden;rotatable=0;points=[[0,0.5],[1,0.5]];portConstraint=eastwest;fontSize=12;whiteSpace=wrap;html=1;" parent="1" vertex="1">
          <mxGeometry x="310" y="230" width="40" height="30" as="geometry" />
        </mxCell>
        <mxCell id="1140-msko8bq90RM-Xo4-113" value="N" style="text;strokeColor=none;fillColor=none;spacingLeft=4;spacingRight=4;overflow=hidden;rotatable=0;points=[[0,0.5],[1,0.5]];portConstraint=eastwest;fontSize=12;whiteSpace=wrap;html=1;" parent="1" vertex="1">
          <mxGeometry x="180" y="280" width="40" height="30" as="geometry" />
        </mxCell>
        <mxCell id="1140-msko8bq90RM-Xo4-114" value="N" style="text;strokeColor=none;fillColor=none;spacingLeft=4;spacingRight=4;overflow=hidden;rotatable=0;points=[[0,0.5],[1,0.5]];portConstraint=eastwest;fontSize=12;whiteSpace=wrap;html=1;" parent="1" vertex="1">
          <mxGeometry x="420" y="230" width="40" height="30" as="geometry" />
        </mxCell>
        <mxCell id="1140-msko8bq90RM-Xo4-115" value="1" style="text;strokeColor=none;fillColor=none;spacingLeft=4;spacingRight=4;overflow=hidden;rotatable=0;points=[[0,0.5],[1,0.5]];portConstraint=eastwest;fontSize=12;whiteSpace=wrap;html=1;" parent="1" vertex="1">
          <mxGeometry x="450" y="180" width="40" height="30" as="geometry" />
        </mxCell>
        <mxCell id="1140-msko8bq90RM-Xo4-116" value="1" style="text;strokeColor=none;fillColor=none;spacingLeft=4;spacingRight=4;overflow=hidden;rotatable=0;points=[[0,0.5],[1,0.5]];portConstraint=eastwest;fontSize=12;whiteSpace=wrap;html=1;" parent="1" vertex="1">
          <mxGeometry x="210" y="200" width="40" height="30" as="geometry" />
        </mxCell>
        <mxCell id="1140-msko8bq90RM-Xo4-132" value="" style="edgeStyle=entityRelationEdgeStyle;fontSize=12;html=1;endArrow=ERzeroToMany;startArrow=ERmandOne;rounded=0;" parent="1" source="1140-msko8bq90RM-Xo4-64" target="1140-msko8bq90RM-Xo4-126" edge="1">
          <mxGeometry width="100" height="100" relative="1" as="geometry">
            <mxPoint x="220" y="870" as="sourcePoint" />
            <mxPoint x="320" y="770" as="targetPoint" />
          </mxGeometry>
        </mxCell>
        <mxCell id="1140-msko8bq90RM-Xo4-133" value="" style="edgeStyle=entityRelationEdgeStyle;fontSize=12;html=1;endArrow=ERzeroToMany;startArrow=ERmandOne;rounded=0;" parent="1" source="1140-msko8bq90RM-Xo4-51" target="1140-msko8bq90RM-Xo4-28" edge="1">
          <mxGeometry width="100" height="100" relative="1" as="geometry">
            <mxPoint x="260" y="830" as="sourcePoint" />
            <mxPoint x="350" y="1040" as="targetPoint" />
          </mxGeometry>
        </mxCell>
        <mxCell id="1140-msko8bq90RM-Xo4-134" value="" style="edgeStyle=entityRelationEdgeStyle;fontSize=12;html=1;endArrow=ERzeroToMany;startArrow=ERmandOne;rounded=0;" parent="1" source="1140-msko8bq90RM-Xo4-41" target="1140-msko8bq90RM-Xo4-31" edge="1">
          <mxGeometry width="100" height="100" relative="1" as="geometry">
            <mxPoint x="400" y="860" as="sourcePoint" />
            <mxPoint x="490" y="1070" as="targetPoint" />
          </mxGeometry>
        </mxCell>
      </root>
    </mxGraphModel>
  </diagram>
  <diagram id="yZXWzVgtY-Q7Sj35MAcR" name="페이지-2">
    <mxGraphModel dx="2261" dy="780" grid="1" gridSize="10" guides="1" tooltips="1" connect="1" arrows="1" fold="1" page="1" pageScale="1" pageWidth="827" pageHeight="1169" math="0" shadow="0">
      <root>
        <mxCell id="0" />
        <mxCell id="1" parent="0" />
        <mxCell id="Dyve3wWf7fWqdaN78K1q-1" value="과목" style="whiteSpace=wrap;html=1;align=center;" vertex="1" parent="1">
          <mxGeometry x="-100" y="380" width="100" height="40" as="geometry" />
        </mxCell>
        <mxCell id="Dyve3wWf7fWqdaN78K1q-2" value="교수" style="whiteSpace=wrap;html=1;align=center;" vertex="1" parent="1">
          <mxGeometry x="-100" y="130" width="100" height="40" as="geometry" />
        </mxCell>
        <mxCell id="Dyve3wWf7fWqdaN78K1q-3" value="학과" style="whiteSpace=wrap;html=1;align=center;" vertex="1" parent="1">
          <mxGeometry x="470" y="130" width="100" height="40" as="geometry" />
        </mxCell>
        <mxCell id="Dyve3wWf7fWqdaN78K1q-4" value="학생" style="whiteSpace=wrap;html=1;align=center;" vertex="1" parent="1">
          <mxGeometry x="470" y="380" width="100" height="40" as="geometry" />
        </mxCell>
        <mxCell id="Dyve3wWf7fWqdaN78K1q-5" value="소속" style="shape=rhombus;perimeter=rhombusPerimeter;whiteSpace=wrap;html=1;align=center;" vertex="1" parent="1">
          <mxGeometry x="180" y="120" width="120" height="60" as="geometry" />
        </mxCell>
        <mxCell id="Dyve3wWf7fWqdaN78K1q-6" value="강의" style="shape=rhombus;perimeter=rhombusPerimeter;whiteSpace=wrap;html=1;align=center;" vertex="1" parent="1">
          <mxGeometry x="-110" y="230" width="120" height="60" as="geometry" />
        </mxCell>
        <mxCell id="Dyve3wWf7fWqdaN78K1q-7" value="소속" style="shape=rhombus;perimeter=rhombusPerimeter;whiteSpace=wrap;html=1;align=center;" vertex="1" parent="1">
          <mxGeometry x="460" y="230" width="120" height="60" as="geometry" />
        </mxCell>
        <mxCell id="Dyve3wWf7fWqdaN78K1q-8" value="수강" style="shape=rhombus;perimeter=rhombusPerimeter;whiteSpace=wrap;html=1;align=center;" vertex="1" parent="1">
          <mxGeometry x="180" y="370" width="120" height="60" as="geometry" />
        </mxCell>
        <mxCell id="Dyve3wWf7fWqdaN78K1q-9" value="과목명" style="ellipse;whiteSpace=wrap;html=1;align=center;" vertex="1" parent="1">
          <mxGeometry x="-110" y="645" width="100" height="40" as="geometry" />
        </mxCell>
        <mxCell id="Dyve3wWf7fWqdaN78K1q-10" value="종료일" style="ellipse;whiteSpace=wrap;html=1;align=center;" vertex="1" parent="1">
          <mxGeometry x="-50" y="585" width="100" height="40" as="geometry" />
        </mxCell>
        <mxCell id="Dyve3wWf7fWqdaN78K1q-11" value="교수이름" style="ellipse;whiteSpace=wrap;html=1;align=center;" vertex="1" parent="1">
          <mxGeometry x="-200" y="615" width="100" height="40" as="geometry" />
        </mxCell>
        <mxCell id="Dyve3wWf7fWqdaN78K1q-12" value="시작일" style="ellipse;whiteSpace=wrap;html=1;align=center;" vertex="1" parent="1">
          <mxGeometry x="10" y="635" width="100" height="40" as="geometry" />
        </mxCell>
        <mxCell id="Dyve3wWf7fWqdaN78K1q-13" value="학과명" style="ellipse;whiteSpace=wrap;html=1;align=center;" vertex="1" parent="1">
          <mxGeometry x="-120" y="715" width="100" height="40" as="geometry" />
        </mxCell>
        <mxCell id="Dyve3wWf7fWqdaN78K1q-14" value="이름" style="ellipse;whiteSpace=wrap;html=1;align=center;" vertex="1" parent="1">
          <mxGeometry x="30" y="695" width="100" height="40" as="geometry" />
        </mxCell>
        <mxCell id="Dyve3wWf7fWqdaN78K1q-15" value="키" style="ellipse;whiteSpace=wrap;html=1;align=center;" vertex="1" parent="1">
          <mxGeometry x="160" y="675" width="100" height="40" as="geometry" />
        </mxCell>
        <mxCell id="Dyve3wWf7fWqdaN78K1q-16" value="과목코드" style="ellipse;whiteSpace=wrap;html=1;align=center;fontStyle=4;" vertex="1" parent="1">
          <mxGeometry x="570" y="450" width="100" height="40" as="geometry" />
        </mxCell>
        <mxCell id="Dyve3wWf7fWqdaN78K1q-17" value="학과코드" style="ellipse;whiteSpace=wrap;html=1;align=center;fontStyle=4;" vertex="1" parent="1">
          <mxGeometry x="630" y="390" width="100" height="40" as="geometry" />
        </mxCell>
        <mxCell id="Dyve3wWf7fWqdaN78K1q-18" value="교수코드" style="ellipse;whiteSpace=wrap;html=1;align=center;fontStyle=4;" vertex="1" parent="1">
          <mxGeometry x="500" y="520" width="100" height="40" as="geometry" />
        </mxCell>
        <mxCell id="Dyve3wWf7fWqdaN78K1q-19" value="학번" style="ellipse;whiteSpace=wrap;html=1;align=center;fontStyle=4;" vertex="1" parent="1">
          <mxGeometry x="610" y="530" width="100" height="40" as="geometry" />
        </mxCell>
      </root>
    </mxGraphModel>
  </diagram>
</mxfile>
